<?xml version="1.0" encoding="utf-8"?>
<!-- Generator: Adobe Illustrator 15.0.0, SVG Export Plug-In . SVG Version: 6.00 Build 0)  -->
<!DOCTYPE svg PUBLIC "-//W3C//DTD SVG 1.1//EN" "http://www.w3.org/Graphics/SVG/1.1/DTD/svg11.dtd">
<svg version="1.1" id="Layer_1" xmlns="http://www.w3.org/2000/svg" xmlns:xlink="http://www.w3.org/1999/xlink" x="0px" y="0px"
	 width="268px" height="80px" viewBox="0 0 268 80" enable-background="new 0 0 268 80" xml:space="preserve">
<line fill="none" stroke="#0071BC" stroke-width="3" stroke-miterlimit="10" x1="20.348" y1="70.271" x2="55.756" y2="55.247"/>
<line fill="none" stroke="#0071BC" stroke-width="3" stroke-miterlimit="10" x1="57.094" y1="55.247" x2="71.809" y2="69.567"/>
<ellipse fill="#0071BC" cx="57.094" cy="55.247" rx="14.715" ry="5.508"/>
<polyline opacity="0.4" fill="#B3B3B3" points="9.332,7.172 59.716,69.269 87.86,69.567 "/>
<polyline opacity="0.4" fill="#B3B3B3" points="84.241,8.173 32.826,69.269 3.981,69.567 "/>
<g>
	<path fill="#0071BC" d="M96.351,73.207v-3.294c1.339,0.596,2.711,1.121,5.122,1.121c2.343,0,3.281-0.7,3.281-1.962
		c0-1.191-0.636-1.717-2.411-2.066l-1.607-0.386c-2.711-0.561-4.453-1.962-4.453-5.325c0-3.398,2.143-5.605,6.629-5.605
		c2.377,0,3.917,0.42,5.122,0.98v3.294c-1.071-0.386-2.678-0.876-4.687-0.876c-1.975,0-2.946,0.631-2.946,1.892
		c0,1.191,0.636,1.611,2.243,1.927l1.641,0.351c3.415,0.735,4.72,2.277,4.72,5.431c0,3.818-2.41,5.78-6.896,5.78
		C99.833,74.468,97.69,73.978,96.351,73.207z"/>
	<path fill="#0071BC" d="M112.989,69.528V59.403h-2.31v-3.398h2.31V51.73h4.319v4.274h3.984v3.398h-3.984v9.389
		c0,1.542,0.636,2.067,2.276,2.067c0.636,0,1.373-0.105,1.875-0.28v3.048c-0.636,0.351-1.674,0.735-3.381,0.735
		C114.931,74.362,112.989,73.137,112.989,69.528z"/>
	<path fill="#0071BC" d="M123.399,69.317c0-3.433,2.277-4.975,5.792-5.5l3.816-0.49v-1.227c0-2.242-0.938-2.768-3.783-2.768
		c-1.707,0-3.247,0.21-4.386,0.561V56.67c1.708-0.63,3.649-0.98,6.06-0.98c4.084,0,6.462,1.541,6.462,5.465v12.998h-3.583
		l-0.335-1.472h-0.201c-0.77,1.052-2.243,1.787-4.419,1.787C125.643,74.468,123.399,72.821,123.399,69.317z M133.008,70.369v-4.204
		l-2.846,0.315c-1.641,0.175-2.444,0.806-2.444,2.487s1.038,2.382,2.477,2.382C131.3,71.35,132.472,70.93,133.008,70.369z"/>
	<path fill="#0071BC" d="M139.369,75.168c0-1.892,1.439-2.978,3.247-3.573V71.42c-1.071-0.455-1.808-1.121-1.808-2.487
		s0.703-1.927,2.042-3.013c-1.406-0.876-2.21-2.173-2.21-4.31v-0.245c0-3.819,2.846-5.676,7.064-5.676
		c1.071,0,1.975,0.105,2.845,0.315h5.926v2.838h-2.611c0.569,0.7,0.837,1.296,0.837,2.382v0.28c0,3.889-2.945,5.536-6.996,5.536
		c-1.005,0-1.875-0.07-2.679-0.315c-0.335,0.315-0.502,0.455-0.502,0.841c0,0.875,0.368,0.91,1.439,0.91h4.82
		c3.415,0,5.726,1.262,5.726,4.765c0,3.644-2.779,6.097-8.973,6.097C141.946,79.338,139.369,77.866,139.369,75.168z M152.023,74.013
		c0-1.332-0.569-1.577-2.545-1.577h-4.251c-0.904,0.315-1.573,0.911-1.573,2.032c0,1.296,0.971,1.787,3.816,1.787
		C150.885,76.255,152.023,75.483,152.023,74.013z M150.483,61.575v-0.386c0-2.066-1.104-2.627-2.778-2.627
		c-1.842,0-2.846,0.735-2.846,2.558v0.42c0,1.997,1.071,2.698,2.846,2.698C149.445,64.238,150.483,63.537,150.483,61.575z"/>
	<path fill="#0071BC" d="M157.948,65.289v-0.456c0-5.99,3.448-9.144,8.135-9.144c5.256,0,7.466,3.118,7.466,8.934v1.682h-11.115
		c0.302,3.504,2.109,4.66,5.257,4.66c2.143,0,3.782-0.526,5.256-1.191v3.013c-1.205,0.841-3.248,1.682-6.261,1.682
		C160.86,74.468,157.948,71.104,157.948,65.289z M162.434,63.327h6.797c0-3.188-1.105-4.38-3.248-4.38
		C164.409,58.947,162.668,59.894,162.434,63.327z"/>
	<path fill="#0071BC" d="M183.725,75.168c0-1.892,1.439-2.978,3.247-3.573V71.42c-1.071-0.455-1.808-1.121-1.808-2.487
		s0.703-1.927,2.042-3.013c-1.406-0.876-2.21-2.173-2.21-4.31v-0.245c0-3.819,2.846-5.676,7.064-5.676
		c1.071,0,1.975,0.105,2.845,0.315h5.926v2.838h-2.611c0.569,0.7,0.837,1.296,0.837,2.382v0.28c0,3.889-2.945,5.536-6.996,5.536
		c-1.005,0-1.875-0.07-2.679-0.315c-0.335,0.315-0.502,0.455-0.502,0.841c0,0.875,0.368,0.91,1.439,0.91h4.82
		c3.415,0,5.726,1.262,5.726,4.765c0,3.644-2.779,6.097-8.973,6.097C186.302,79.338,183.725,77.866,183.725,75.168z M196.379,74.013
		c0-1.332-0.569-1.577-2.545-1.577h-4.251c-0.904,0.315-1.573,0.911-1.573,2.032c0,1.296,0.971,1.787,3.816,1.787
		C195.24,76.255,196.379,75.483,196.379,74.013z M194.839,61.575v-0.386c0-2.066-1.104-2.627-2.778-2.627
		c-1.842,0-2.846,0.735-2.846,2.558v0.42c0,1.997,1.071,2.698,2.846,2.698C193.801,64.238,194.839,63.537,194.839,61.575z"/>
	<path fill="#0071BC" d="M203.208,56.005h4.219v2.137h0.167c0.904-1.366,2.645-2.312,4.486-2.312c0.469,0,0.87,0.034,1.004,0.14
		v4.063c-0.368-0.069-0.938-0.14-1.372-0.14c-1.54,0-3.047,0.455-4.118,1.121v13.138h-4.386V56.005z"/>
	<path fill="#0071BC" d="M214.222,69.317c0-3.433,2.276-4.975,5.792-5.5l3.816-0.49v-1.227c0-2.242-0.938-2.768-3.783-2.768
		c-1.707,0-3.247,0.21-4.386,0.561V56.67c1.708-0.63,3.649-0.98,6.06-0.98c4.084,0,6.461,1.541,6.461,5.465v12.998H224.6
		l-0.334-1.472h-0.201c-0.771,1.052-2.243,1.787-4.419,1.787C216.465,74.468,214.222,72.821,214.222,69.317z M223.83,70.369v-4.204
		l-2.846,0.315c-1.641,0.175-2.444,0.806-2.444,2.487s1.038,2.382,2.478,2.382C222.123,71.35,223.294,70.93,223.83,70.369z"/>
	<path fill="#0071BC" d="M231.997,56.005h4.219v1.576h0.167c1.071-1.156,2.779-1.927,4.988-1.927c3.549,0,6.763,2.172,6.763,8.863
		v0.386c0,6.937-3.147,9.564-7.867,9.564c-1.842,0-3.147-0.49-3.884-0.946v5.781h-4.386V56.005z M243.614,65.499v-0.666
		c0-4.344-1.406-5.465-3.85-5.465c-1.574,0-2.745,0.49-3.382,0.946v9.879c0.603,0.456,1.808,0.911,3.214,0.911
		C242.107,71.104,243.614,69.773,243.614,65.499z"/>
	<path fill="#0071BC" d="M251.18,48.543h4.386v8.969h0.201c1.339-1.087,3.314-1.857,5.457-1.857c3.314,0,5.055,1.437,5.055,5.045
		v13.453h-4.419V61.785c0-1.717-0.603-2.417-2.745-2.417c-1.205,0-2.578,0.49-3.549,0.911v13.873h-4.386V48.543z"/>
</g>
<g>
</g>
<ellipse fill="#0071BC" cx="18.381" cy="70.271" rx="14.714" ry="5.509"/>
<ellipse fill="#0071BC" cx="73.146" cy="70.271" rx="14.714" ry="5.509"/>
<line fill="none" stroke="#0071BC" stroke-width="3" stroke-miterlimit="10" x1="19" y1="70.5" x2="69" y2="70.5"/>
<g>
	<path fill="#0071BC" d="M97.757,16.16h2.578v25.084h-2.578V16.16z"/>
	<path fill="#0071BC" d="M105.356,17.596h2.611v2.803h-2.611V17.596z M105.39,23.902h2.544v17.342h-2.544V23.902z"/>
	<path fill="#0071BC" d="M112.888,23.867h2.444v1.507h0.134c1.54-1.051,3.683-1.822,5.725-1.822c3.247,0,4.821,1.366,4.821,4.729
		v12.962h-2.544V28.842c0-2.102-0.703-2.978-3.348-2.978c-1.574,0-3.314,0.596-4.687,1.261v14.119h-2.544V23.867z"/>
	<path fill="#0071BC" d="M130.832,16.16h2.544v25.084h-2.544V16.16z M133.644,32.275l6.696-8.373h2.745l-6.528,8.163l7.063,9.179
		h-2.945L133.644,32.275z"/>
	<path fill="#0071BC" d="M145.796,32.801v-0.491c0-6.061,3.415-8.758,7.231-8.758c4.553,0,6.695,2.768,6.695,8.163v1.507h-11.315
		c0.134,4.344,2.108,6.026,5.657,6.026c2.21,0,3.683-0.561,5.189-1.296v1.997c-1.005,0.735-2.913,1.611-5.591,1.611
		C148.44,41.56,145.796,38.231,145.796,32.801z M148.407,31.084h8.637c0-3.784-1.372-5.36-4.084-5.36
		C150.885,25.724,148.675,26.985,148.407,31.084z"/>
	<path fill="#0071BC" d="M162.602,33.046v-0.456c0-6.306,3.114-9.039,7.399-9.039c2.042,0,3.448,0.595,4.352,1.156V16.16h2.578
		v25.084h-2.143l-0.302-1.436h-0.134c-1.004,1.016-2.611,1.751-4.854,1.751C166.184,41.56,162.602,39.458,162.602,33.046z
		 M174.353,37.881V26.95c-0.77-0.63-2.31-1.121-4.018-1.121c-3.146,0-5.055,1.717-5.055,6.412v0.701c0,4.87,2.009,6.411,4.988,6.411
		C172.21,39.353,173.516,38.582,174.353,37.881z"/>
</g>
<path fill="#4D4D4D" d="M21.296,35.228c-0.259,0-0.506-0.004-0.754,0.003c-0.065,0-0.13,0.037-0.194,0.057
	c0.05,0.067,0.087,0.166,0.154,0.194c0.133,0.055,0.281,0.07,0.424,0.103c0.029,0.005,0.054,0.025,0.065,0.052
	c-0.074,0-0.148,0.005-0.221,0.016c-0.048,0.017-0.094,0.042-0.135,0.072c0.04,0.04,0.072,0.105,0.12,0.116
	c0.105,0.021,0.213,0.032,0.321,0.032c0.323,0.005,0.605,0.222,0.694,0.533c0.065,0.229,0.188,0.401,0.407,0.514
	c0.076,0.043,0.128,0.118,0.145,0.204c0.02,0.323,0.028,0.648,0.016,0.971c-0.024,0.621-0.065,1.242-0.098,1.861
	c-0.003,0.066,0.001,0.132,0.011,0.197c0.073,0.505-0.163,0.917-0.386,1.341c-0.237,0.448-0.441,0.914-0.671,1.367
	c-0.061,0.109-0.142,0.205-0.24,0.283c-0.171,0.146-0.36,0.27-0.534,0.414c-0.099,0.082-0.169,0.069-0.255-0.013
	c-0.298-0.286-0.316-0.604-0.048-0.966c0.075-0.102,0.151-0.204,0.227-0.307c0.014-0.018,0.027-0.043,0.046-0.051
	c0.257-0.101,0.34-0.364,0.504-0.551c0.071-0.08,0.146-0.216-0.027-0.307c-0.018-0.01-0.02-0.078-0.009-0.113
	c0.042-0.148,0.091-0.296,0.14-0.443c0.126-0.377,0.008-0.794-0.298-1.048c-0.086-0.072-0.16-0.16-0.24-0.238
	c-0.431-0.43-1.128-0.429-1.558,0.001c-0.125,0.125-0.218,0.278-0.271,0.447c-0.074,0.23-0.109,0.475-0.167,0.711
	c-0.01,0.04-0.037,0.097-0.068,0.106c-0.105,0.029-0.172,0.133-0.155,0.241c0.018,0.204,0.062,0.407,0.099,0.609
	c0.005,0.032,0.024,0.062,0.051,0.08c0.146,0.058,0.102,0.169,0.086,0.272c-0.042,0.283-0.087,0.566-0.127,0.852
	c-0.021,0.15-0.152,0.346-0.264,0.349c-0.158,0.005-0.205-0.146-0.281-0.247c-0.033-0.057-0.052-0.121-0.054-0.187
	c-0.03-0.278-0.131-0.543-0.292-0.771c-0.227-0.32-0.375-0.668-0.406-1.067c-0.026-0.342-0.077-0.682-0.125-1.023
	c-0.04-0.285,0.033-0.542,0.13-0.81c0.193-0.534,0.347-1.082,0.526-1.62c0.13-0.392,0.275-0.779,0.414-1.168
	c0.047-0.132,0.125-0.206,0.28-0.158c0.046,0.009,0.094,0.007,0.139-0.007c0.087-0.019,0.173-0.042,0.258-0.07
	c0.238-0.08,0.475-0.101,0.718-0.019c0.099,0.033,0.22,0.073,0.283-0.061c0.043-0.091-0.038-0.184-0.206-0.233
	c-0.125-0.037-0.257-0.055-0.386-0.084c-0.112-0.026-0.213-0.067-0.2-0.21c0.011-0.12,0.096-0.179,0.253-0.15
	c0.142,0.029,0.281,0.071,0.416,0.125c0.09,0.034,0.188,0.096,0.249-0.014s-0.05-0.164-0.127-0.213
	c-0.115-0.073-0.235-0.138-0.35-0.212c-0.115-0.074-0.108-0.13,0.008-0.194c0.081-0.046,0.176-0.071,0.255-0.12
	c0.04-0.026,0.061-0.084,0.09-0.127c-0.049-0.019-0.098-0.056-0.144-0.052c-0.24,0.021-0.47,0.069-0.636,0.282
	c-0.056,0.072-0.173,0.096-0.264,0.137c-0.041,0.019-0.094,0.019-0.132,0.042c-0.252,0.16-0.497,0.326-0.751,0.478
	c-0.265,0.16-0.392,0.425-0.545,0.671c-0.524,0.841-0.921,1.746-1.328,2.644c-0.074,0.167-0.102,0.351-0.08,0.532
	c0.029,0.336,0.021,0.677,0.021,1.016c-0.004,1.069,0.144,2.135,0.44,3.163c0.124,0.424,0.092,0.855,0.103,1.287
	c0.005,0.238-0.036,0.476-0.121,0.699c-0.109,0.303-0.071,0.623-0.036,0.938c0.051,0.449,0.097,0.898,0.154,1.346
	c0.07,0.551,0,1.088-0.121,1.625c-0.102,0.453-0.091,0.465-0.538,0.582c-0.363,0.095-0.735,0.154-1.1,0.244
	c-0.311,0.076-0.612,0.184-0.924,0.252c-0.335,0.075-0.604,0.254-0.853,0.475c-0.274,0.243-0.549,0.487-0.814,0.74
	c-0.244,0.234-0.368,0.475-0.504,0.777c-0.021,0.049-0.043,0.107-0.018,0.154c0.021,0.031,0.053,0.056,0.09,0.066
	c0.174,0.07,0.362,0.098,0.548,0.08c0.173-0.016,0.351-0.07,0.515-0.012c0.099,0.035,0.179,0.107,0.27,0.16
	c0.419,0.246,0.888,0.033,1.334,0.051c0.421,0.016,0.752,0.36,1.176,0.387c0.26,0.018,0.544-0.088,0.771,0.041
	c0.476,0.272,0.455,1.139,0.545,1.605c0.127,0.656,0.274,1.311,0.492,1.943c0.164,0.474,0.333,0.945,0.531,1.404
	c0.234,0.544,0.179,1.083,0.143,1.623c-0.048,0.746-0.048,1.496,0,2.243c0.021,0.339,0.059,0.686,0.003,1.015
	c-0.04,0.236-0.051,0.48-0.107,0.715c-0.085,0.354-0.18,0.707-0.243,1.065c-0.028,0.163,0.016,0.337,0.02,0.506
	c0.006,0.253-0.006,0.509,0.013,0.761c0.02,0.254,0.065,0.502,0.105,0.752c0.032,0.199,0.138,0.325,0.356,0.324
	c0.103,0,0.206,0,0.309-0.005c0.107,0.001,0.202-0.071,0.229-0.177c0.015-0.045,0.041-0.086,0.051-0.131
	c0.036-0.125,0.098-0.171,0.24-0.135c0.248,0.062,0.367-0.041,0.401-0.298c0.052-0.405,0.092-0.814,0.171-1.216
	c0.037-0.187,0.148-0.359,0.236-0.535c0.028-0.043,0.069-0.074,0.118-0.091c0.33-0.126,0.514-0.384,0.521-0.751
	c0.004-0.074-0.008-0.149-0.036-0.219c-0.03-0.056-0.08-0.098-0.14-0.117c-0.295-0.08-0.441-0.223-0.443-0.533
	c-0.003-0.418,0.012-0.838,0.042-1.256c0.037-0.488,0.098-0.973,0.149-1.459c0.053-0.512-0.081-0.99-0.241-1.465
	c-0.069-0.205-0.151-0.409-0.189-0.621c-0.03-0.185-0.033-0.373-0.008-0.561c0.09-0.738,0.273-1.459,0.465-2.177
	c0.147-0.55,0.275-1.104,0.396-1.659c0.042-0.197,0.123-0.299,0.33-0.352c0.419-0.107,0.789-0.329,1.125-0.602
	c0.207-0.168,0.412-0.219,0.689-0.162c0.74,0.152,1.461,0.059,2.102-0.36c0.258-0.169,0.462-0.423,0.686-0.644
	c0.059-0.057,0.049-0.106-0.036-0.148c-0.488-0.24-0.97-0.496-1.462-0.729c-0.176-0.083-0.373-0.12-0.563-0.174
	c-0.294-0.08-0.589-0.154-0.884-0.229c-0.441-0.113-0.881-0.225-1.322-0.34c-0.104-0.027-0.206-0.065-0.31-0.096
	c-0.211-0.063-0.354-0.174-0.449-0.398c-0.149-0.352-0.366-0.676-0.547-1.016c-0.064-0.119-0.118-0.245-0.16-0.375
	c-0.015-0.045,0.009-0.109,0.03-0.16c0.194-0.447,0.391-0.894,0.589-1.34c0.021-0.047,0.052-0.089,0.091-0.123
	c0.223-0.193,0.365-0.441,0.48-0.706c0.102-0.228,0.255-0.429,0.448-0.588c0.325-0.275,0.63-0.57,0.793-0.978
	c0.353-0.875,0.727-1.742,1.001-2.648c0.098-0.323,0.213-0.641,0.33-0.959c0.108-0.292,0.085-0.592,0.093-0.893
	c0.022-0.881-0.142-1.74-0.347-2.593c-0.033-0.137-0.037-0.284-0.086-0.414c-0.063-0.168-0.136-0.344-0.247-0.481
	c-0.33-0.41-0.622-0.852-1.017-1.207c-0.188-0.161-0.364-0.332-0.548-0.493c-0.035-0.03-0.099-0.029-0.148-0.042
	c-0.002,0.051-0.027,0.115-0.005,0.15c0.071,0.105,0.147,0.206,0.229,0.302C21.237,35.155,21.268,35.192,21.296,35.228z"/>
</svg>
