<?xml version="1.0" encoding="utf-8"?>
<!-- Generator: Adobe Illustrator 15.0.0, SVG Export Plug-In . SVG Version: 6.00 Build 0)  -->
<!DOCTYPE svg PUBLIC "-//W3C//DTD SVG 1.1//EN" "http://www.w3.org/Graphics/SVG/1.1/DTD/svg11.dtd">
<svg version="1.1" id="Layer_1" xmlns="http://www.w3.org/2000/svg" xmlns:xlink="http://www.w3.org/1999/xlink" x="0px" y="0px"
	 width="268px" height="80px" viewBox="0 0 268 80" enable-background="new 0 0 268 80" xml:space="preserve">
<line fill="none" stroke="#0071BC" stroke-width="3" stroke-miterlimit="10" x1="20.348" y1="70.271" x2="55.756" y2="55.247"/>
<line fill="none" stroke="#0071BC" stroke-width="3" stroke-miterlimit="10" x1="57.094" y1="55.247" x2="71.809" y2="69.567"/>
<ellipse fill="#0071BC" cx="57.094" cy="55.247" rx="14.715" ry="5.508"/>
<polyline opacity="0.4" fill="#B3B3B3" points="9.332,7.172 59.716,69.269 87.86,69.567 "/>
<polyline opacity="0.4" fill="#B3B3B3" points="84.241,8.173 32.826,69.269 3.981,69.567 "/>
<g>
	<path fill="#0071BC" d="M96.351,73.207v-3.294c1.339,0.596,2.711,1.121,5.122,1.121c2.343,0,3.281-0.7,3.281-1.962
		c0-1.191-0.636-1.717-2.411-2.066l-1.607-0.386c-2.711-0.561-4.453-1.962-4.453-5.325c0-3.398,2.143-5.605,6.629-5.605
		c2.377,0,3.917,0.42,5.122,0.98v3.294c-1.071-0.386-2.678-0.876-4.687-0.876c-1.975,0-2.946,0.631-2.946,1.892
		c0,1.191,0.636,1.611,2.243,1.927l1.641,0.351c3.415,0.735,4.72,2.277,4.72,5.431c0,3.818-2.41,5.78-6.896,5.78
		C99.833,74.468,97.69,73.978,96.351,73.207z"/>
	<path fill="#0071BC" d="M112.989,69.528V59.403h-2.31v-3.398h2.31V51.73h4.319v4.274h3.984v3.398h-3.984v9.389
		c0,1.542,0.636,2.067,2.276,2.067c0.636,0,1.373-0.105,1.875-0.28v3.048c-0.636,0.351-1.674,0.735-3.381,0.735
		C114.931,74.362,112.989,73.137,112.989,69.528z"/>
	<path fill="#0071BC" d="M123.399,69.317c0-3.433,2.277-4.975,5.792-5.5l3.816-0.49v-1.227c0-2.242-0.938-2.768-3.783-2.768
		c-1.707,0-3.247,0.21-4.386,0.561V56.67c1.708-0.63,3.649-0.98,6.06-0.98c4.084,0,6.462,1.541,6.462,5.465v12.998h-3.583
		l-0.335-1.472h-0.201c-0.77,1.052-2.243,1.787-4.419,1.787C125.643,74.468,123.399,72.821,123.399,69.317z M133.008,70.369v-4.204
		l-2.846,0.315c-1.641,0.175-2.444,0.806-2.444,2.487s1.038,2.382,2.477,2.382C131.3,71.35,132.472,70.93,133.008,70.369z"/>
	<path fill="#0071BC" d="M139.369,75.168c0-1.892,1.439-2.978,3.247-3.573V71.42c-1.071-0.455-1.808-1.121-1.808-2.487
		s0.703-1.927,2.042-3.013c-1.406-0.876-2.21-2.173-2.21-4.31v-0.245c0-3.819,2.846-5.676,7.064-5.676
		c1.071,0,1.975,0.105,2.845,0.315h5.926v2.838h-2.611c0.569,0.7,0.837,1.296,0.837,2.382v0.28c0,3.889-2.945,5.536-6.996,5.536
		c-1.005,0-1.875-0.07-2.679-0.315c-0.335,0.315-0.502,0.455-0.502,0.841c0,0.875,0.368,0.91,1.439,0.91h4.82
		c3.415,0,5.726,1.262,5.726,4.765c0,3.644-2.779,6.097-8.973,6.097C141.946,79.338,139.369,77.866,139.369,75.168z M152.023,74.013
		c0-1.332-0.569-1.577-2.545-1.577h-4.251c-0.904,0.315-1.573,0.911-1.573,2.032c0,1.296,0.971,1.787,3.816,1.787
		C150.885,76.255,152.023,75.483,152.023,74.013z M150.483,61.575v-0.386c0-2.066-1.104-2.627-2.778-2.627
		c-1.842,0-2.846,0.735-2.846,2.558v0.42c0,1.997,1.071,2.698,2.846,2.698C149.445,64.238,150.483,63.537,150.483,61.575z"/>
	<path fill="#0071BC" d="M157.948,65.289v-0.456c0-5.99,3.448-9.144,8.135-9.144c5.256,0,7.466,3.118,7.466,8.934v1.682h-11.115
		c0.302,3.504,2.109,4.66,5.257,4.66c2.143,0,3.782-0.526,5.256-1.191v3.013c-1.205,0.841-3.248,1.682-6.261,1.682
		C160.86,74.468,157.948,71.104,157.948,65.289z M162.434,63.327h6.797c0-3.188-1.105-4.38-3.248-4.38
		C164.409,58.947,162.668,59.894,162.434,63.327z"/>
	<path fill="#0071BC" d="M183.725,75.168c0-1.892,1.439-2.978,3.247-3.573V71.42c-1.071-0.455-1.808-1.121-1.808-2.487
		s0.703-1.927,2.042-3.013c-1.406-0.876-2.21-2.173-2.21-4.31v-0.245c0-3.819,2.846-5.676,7.064-5.676
		c1.071,0,1.975,0.105,2.845,0.315h5.926v2.838h-2.611c0.569,0.7,0.837,1.296,0.837,2.382v0.28c0,3.889-2.945,5.536-6.996,5.536
		c-1.005,0-1.875-0.07-2.679-0.315c-0.335,0.315-0.502,0.455-0.502,0.841c0,0.875,0.368,0.91,1.439,0.91h4.82
		c3.415,0,5.726,1.262,5.726,4.765c0,3.644-2.779,6.097-8.973,6.097C186.302,79.338,183.725,77.866,183.725,75.168z M196.379,74.013
		c0-1.332-0.569-1.577-2.545-1.577h-4.251c-0.904,0.315-1.573,0.911-1.573,2.032c0,1.296,0.971,1.787,3.816,1.787
		C195.24,76.255,196.379,75.483,196.379,74.013z M194.839,61.575v-0.386c0-2.066-1.104-2.627-2.778-2.627
		c-1.842,0-2.846,0.735-2.846,2.558v0.42c0,1.997,1.071,2.698,2.846,2.698C193.801,64.238,194.839,63.537,194.839,61.575z"/>
	<path fill="#0071BC" d="M203.208,56.005h4.219v2.137h0.167c0.904-1.366,2.645-2.312,4.486-2.312c0.469,0,0.87,0.034,1.004,0.14
		v4.063c-0.368-0.069-0.938-0.14-1.372-0.14c-1.54,0-3.047,0.455-4.118,1.121v13.138h-4.386V56.005z"/>
	<path fill="#0071BC" d="M214.222,69.317c0-3.433,2.276-4.975,5.792-5.5l3.816-0.49v-1.227c0-2.242-0.938-2.768-3.783-2.768
		c-1.707,0-3.247,0.21-4.386,0.561V56.67c1.708-0.63,3.649-0.98,6.06-0.98c4.084,0,6.461,1.541,6.461,5.465v12.998H224.6
		l-0.334-1.472h-0.201c-0.771,1.052-2.243,1.787-4.419,1.787C216.465,74.468,214.222,72.821,214.222,69.317z M223.83,70.369v-4.204
		l-2.846,0.315c-1.641,0.175-2.444,0.806-2.444,2.487s1.038,2.382,2.478,2.382C222.123,71.35,223.294,70.93,223.83,70.369z"/>
	<path fill="#0071BC" d="M231.997,56.005h4.219v1.576h0.167c1.071-1.156,2.779-1.927,4.988-1.927c3.549,0,6.763,2.172,6.763,8.863
		v0.386c0,6.937-3.147,9.564-7.867,9.564c-1.842,0-3.147-0.49-3.884-0.946v5.781h-4.386V56.005z M243.614,65.499v-0.666
		c0-4.344-1.406-5.465-3.85-5.465c-1.574,0-2.745,0.49-3.382,0.946v9.879c0.603,0.456,1.808,0.911,3.214,0.911
		C242.107,71.104,243.614,69.773,243.614,65.499z"/>
	<path fill="#0071BC" d="M251.18,48.543h4.386v8.969h0.201c1.339-1.087,3.314-1.857,5.457-1.857c3.314,0,5.055,1.437,5.055,5.045
		v13.453h-4.419V61.785c0-1.717-0.603-2.417-2.745-2.417c-1.205,0-2.578,0.49-3.549,0.911v13.873h-4.386V48.543z"/>
</g>
<g>
</g>
<ellipse fill="#0071BC" cx="18.381" cy="70.271" rx="14.714" ry="5.509"/>
<ellipse fill="#0071BC" cx="73.146" cy="70.271" rx="14.714" ry="5.509"/>
<line fill="none" stroke="#0071BC" stroke-width="3" stroke-miterlimit="10" x1="19" y1="70.5" x2="69" y2="70.5"/>
<g>
	<path fill="#0071BC" d="M97.757,16.16h2.578v25.084h-2.578V16.16z"/>
	<path fill="#0071BC" d="M105.356,17.596h2.611v2.803h-2.611V17.596z M105.39,23.902h2.544v17.342h-2.544V23.902z"/>
	<path fill="#0071BC" d="M112.888,23.867h2.444v1.507h0.134c1.54-1.051,3.683-1.822,5.725-1.822c3.247,0,4.821,1.366,4.821,4.729
		v12.962h-2.544V28.842c0-2.102-0.703-2.978-3.348-2.978c-1.574,0-3.314,0.596-4.687,1.261v14.119h-2.544V23.867z"/>
	<path fill="#0071BC" d="M130.832,16.16h2.544v25.084h-2.544V16.16z M133.644,32.275l6.696-8.373h2.745l-6.528,8.163l7.063,9.179
		h-2.945L133.644,32.275z"/>
	<path fill="#0071BC" d="M145.796,32.801v-0.491c0-6.061,3.415-8.758,7.231-8.758c4.553,0,6.695,2.768,6.695,8.163v1.507h-11.315
		c0.134,4.344,2.108,6.026,5.657,6.026c2.21,0,3.683-0.561,5.189-1.296v1.997c-1.005,0.735-2.913,1.611-5.591,1.611
		C148.44,41.56,145.796,38.231,145.796,32.801z M148.407,31.084h8.637c0-3.784-1.372-5.36-4.084-5.36
		C150.885,25.724,148.675,26.985,148.407,31.084z"/>
	<path fill="#0071BC" d="M162.602,33.046v-0.456c0-6.306,3.114-9.039,7.399-9.039c2.042,0,3.448,0.595,4.352,1.156V16.16h2.578
		v25.084h-2.143l-0.302-1.436h-0.134c-1.004,1.016-2.611,1.751-4.854,1.751C166.184,41.56,162.602,39.458,162.602,33.046z
		 M174.353,37.881V26.95c-0.77-0.63-2.31-1.121-4.018-1.121c-3.146,0-5.055,1.717-5.055,6.412v0.701c0,4.87,2.009,6.411,4.988,6.411
		C172.21,39.353,173.516,38.582,174.353,37.881z"/>
</g>
</svg>
